<svg width="1000" height="1000" viewBox="0 0 1000 1000" fill="none" xmlns="http://www.w3.org/2000/svg">
<path d="M435.5 624C425.1 624 399.5 608.333 388 600.5C488.4 578.5 572.167 537.333 601.5 519.5L600.5 525L598.5 531.5L597 536.5L596 539L593.5 545.5L591 551.5L588 557C587.167 558.667 585.4 562 585 562C584.6 562 583.5 564.333 583 565.5L579.5 570.5L577 574L573 578.5L570 582.5L567 586L564.5 588.5L562 590.5L559.5 593L557.5 595L555.5 596.5L553.5 598L552 599L549.5 601.5L547.5 603L544.5 605.5L540.5 608L536.5 610.5L533.5 612L530 614L526.5 615.5L523.5 617L520.5 618L518.5 618.5L517 619.5L515 620L513 621L511.5 621.5L509 622L504.5 623.5L500.5 624.5L497 625.5L494 626L490.5 626.5L486 627.5H480.5L472.5 628C467.3 629.2 445.667 625.833 435.5 624Z" fill="#D5C08A"/>
<path d="M345.5 546C343 540.167 338.1 528.2 338.5 527C336.167 518.167 332 499.9 334 497.5C334 489.833 334.2 474.1 335 472.5C336 465.5 338.7 450.1 341.5 444.5C345 436.333 352.3 419.9 353.5 419.5C358.667 411.667 370 395.4 374 393C377.333 389.5 385.3 381.7 390.5 378.5C397 374.5 404 370 407.5 368C412.667 365.5 423.2 360.6 424 361C429.667 359 441.6 355.1 444 355.5C450.667 354.5 464.8 352.6 468 353C477.167 353 497.8 354.1 507 358.5C517 361.833 537.8 369.6 541 374C541.3 374.413 541.556 374.768 541.772 375.07L562 390C570.4 396.8 582.167 415.167 587 423.5C590.2 425.5 596.667 443.333 599.5 452C600.3 453.2 569.5 469.833 554 478C551.6 479.2 512 496.833 492.5 505.5L457 516.5L423.5 527L382.5 537.5L345.5 546Z" fill="#D5C08A"/>
<path d="M446.164 646.689C446.022 647.004 445.744 647.176 445.466 647.347C445.654 647.08 445.841 646.812 446.164 646.689Z" fill="#10121D"/>
<path d="M398.402 630.311C398.544 629.996 398.822 629.824 399.1 629.653C398.913 629.92 398.725 630.188 398.402 630.311Z" fill="#10121D"/>
<path d="M480.486 508.882C478.427 509.429 476.369 509.977 473.654 510.771C466.598 513.059 460.198 515.102 453.754 516.798C453.072 514.294 452.435 512.136 452.091 510.14C454.179 511.51 455.975 512.716 457.771 513.922C457.87 512.051 457.286 511.123 456.63 510.25C451.485 503.402 451.233 496.007 455.091 488.724C459.056 481.241 465.766 477.854 474.169 479.156C477.818 479.722 481.251 481.677 484.83 483.104C484.877 483.207 485.154 483.218 485.154 483.218C485.154 483.218 484.786 482.999 484.736 482.653C481.051 479.899 477.416 477.491 473.944 474.765C474.646 472.868 475.183 471.288 475.721 469.708C473.034 469.768 471.657 470.594 470.198 471.236C465.607 473.257 460.049 470.759 460.306 466.359C460.428 464.259 462.681 462.072 464.382 460.327C466.667 457.983 471.052 457.511 470.825 452.597C474.199 451.265 474.344 451.326 475.956 456.212C476.981 459.316 477.931 462.574 482.166 461.861C485.486 461.302 489.378 461.141 488.936 455.911C488.845 454.829 490.055 453.615 490.72 452.495C492.944 448.751 491.978 446.944 487.711 446.395C486.697 446.264 485.042 445.154 485.035 444.482C485.023 443.349 485.93 442.057 486.768 441.116C487.365 440.446 488.88 440.487 489.31 439.793C493.284 433.381 498.469 434.6 504.09 437.051C505.197 437.533 507.349 437.466 507.986 436.742C508.921 435.679 509.533 433.657 509.217 432.289C508.184 427.813 506.13 423.525 505.478 419.019C504.722 413.793 502.561 410.078 497.816 407.507C499.434 404.784 501.044 402.416 503.044 399.477C506.225 404.249 507.357 403.089 509.9 399.487C513.035 395.048 514.873 389.183 521.487 387.346C525.576 386.21 529.151 382.994 532.756 380.43C534.979 378.849 536.825 376.737 538.841 374.863C543.417 377.644 548.044 380.347 552.546 383.245C554.337 384.397 555.851 385.98 557.447 387.915C556.722 389.571 556.04 390.68 555.358 391.789C556.708 392.506 557.997 393.581 559.428 393.826C560.547 394.018 561.842 393.181 563.059 392.8C565.884 395.652 568.71 398.503 571.527 401.995C569.283 407.129 569.487 411.66 573.56 414.58C576.688 416.824 580.83 417.653 584.521 419.111C584.521 419.111 584.935 419.153 585.262 419.472C586.13 420.835 586.673 421.879 586.816 423.067C583.677 423.719 580.88 424.033 578.224 424.822C577.001 425.185 575.592 426.268 575.08 427.394C574.044 429.675 573.562 432.208 572.656 435.306C569.214 432.132 566.623 430.429 565.371 435.772C565.324 435.972 562.43 436.117 561.579 435.417C555.859 430.715 550.334 425.776 544.921 420.623C550.612 412.543 551.526 406.661 548.238 403.124C546.5 407.978 545.653 413.776 542.603 417.973C538.951 422.997 532.543 422.595 525.867 421.025C527.225 422.833 527.99 423.852 528.61 425.26C527.332 433.974 527.253 441.923 535.465 447.276C536.664 448.057 538.239 449.488 538.232 450.609C538.22 452.361 536.843 455.669 536.326 455.615C529.877 454.945 523.474 453.814 517.076 452.706C516.528 452.611 516.121 451.487 515.608 451.452C514.078 451.349 511.76 450.942 511.122 451.744C508.823 454.637 506.259 455.178 502.768 454.716C501.259 454.517 498.177 455.997 498.116 456.873C497.879 460.316 498.419 463.844 498.96 467.296C499.234 469.051 500.663 470.724 500.621 472.411C500.54 475.678 501.735 477.827 504.582 479.203C507.707 480.712 508.315 483.094 507.227 486.251C505.9 490.099 504.68 494.004 506.492 498.213C502.605 499.957 499.007 501.493 495.41 503.029C494.444 503.317 493.479 503.604 491.901 503.946C491.29 504 490.806 504.039 490.812 503.63C492.224 498.333 492.033 493.73 489.083 489.615C488.57 489.608 488.057 489.602 487.544 489.596C486.96 495.082 486.376 500.567 485.607 506.351C483.776 507.393 482.131 508.137 480.486 508.882ZM515.508 399.692C513.184 407.71 515.768 416.458 522.811 418.636C520.439 411.364 516.942 404.437 522.658 397.466C528.613 390.205 535.657 391.388 543.203 394.501C534.358 385.498 521.972 387.767 515.508 399.692ZM517.833 437.626C518.272 435.337 518.711 433.048 519.29 430.027C513.775 432.389 513.518 434.506 517.833 437.626Z" fill="#D5C08A"/>
<path d="M487.972 571.762C509.256 563.427 530.541 555.092 552.443 547C553.493 547.524 553.896 547.867 554.36 548.079C559.842 550.588 560.568 550.98 556.783 555.51C556.041 556.398 555.023 558.13 555.573 559.127C556.85 561.439 558.774 563.395 560.383 565.534C563.325 569.446 566.303 569.731 569.645 565.924C570.296 565.182 571.876 564.498 572.637 564.789C573.473 565.107 573.9 566.561 574.429 567.56C575.318 569.241 576.146 570.953 577 572.652C566.531 587.4 554.988 598.654 539.081 608.033C534.952 606.338 531.891 608.273 529.189 612.153C525.474 617.486 517.861 616.139 511.263 614.782C511.619 609.868 509.086 607.489 503.946 607.37C502.996 607.348 501.894 605.931 501.184 604.933C498.259 600.82 492.384 598.16 488.838 599.528C488.364 602.354 491.095 606.326 485.618 607.578C479.823 610.477 475.569 606.719 470 605.4C473.889 602.199 477.119 599.541 480.465 596.787C479.896 593.607 479.3 590.271 479.022 586.782C485.344 583.449 487.23 577.931 487.972 571.762ZM546.203 561.449C545.394 562.822 544.584 564.194 543.775 565.567C544.17 565.944 544.564 566.322 544.959 566.699C546.581 565.296 548.454 564.077 549.708 562.405C550.255 561.675 549.534 560.015 549.39 558.777C548.435 559.458 547.48 560.139 546.203 561.449Z" fill="#C2AB77"/>
<path d="M353.857 421.165C361.52 408.071 371.191 396.361 382.775 386.895C399.13 373.531 417.606 363.458 438.583 358.838C439.868 358.555 441.18 358.39 442.479 358.762C442.386 360.871 441.801 362.59 442.32 363.855C443.044 365.619 444.706 366.972 445.769 368.627C448.162 372.356 445.821 378.914 441.797 379.606C441.844 376.743 441.07 374.476 438.232 375.318C436.829 375.735 435.976 378.006 434.874 379.437C436.51 380.291 438.147 381.145 439.974 382.223C437.716 383.63 435.267 384.814 432.813 385.569C432.984 380.318 432.282 375.869 427.352 372.913C425.791 372.302 424.581 371.711 423.303 371.447C417.838 370.318 411.357 374.538 409.562 380.306C407.941 385.517 410.389 390.463 416.176 393.241C417.558 393.664 418.645 393.92 419.745 394.565C420.195 396.51 420.765 398.043 421.039 399.628C421.691 403.391 422.202 407.179 422.386 410.965C416.792 411.937 415.677 413.654 416.751 419.314C414.716 422.082 412.737 424.508 410.398 426.998C403.964 428.065 403.098 431.736 404.6 434.886C401.913 438.802 399.491 441.324 398.285 444.334C396.652 448.41 394.842 448.336 392.232 445.625C390.044 443.352 388.121 443.34 386.862 446.288C385.597 449.25 383.859 449.365 381.323 448.058C380.189 447.474 378.719 446.83 377.59 447.076C373.292 448.014 369.915 446.893 366.119 444.56C362.812 442.527 361.187 441.075 362.8 437.297C364.339 433.694 362.386 432.635 359.25 433.166C357.172 433.518 355.233 434.632 353.164 435.115C351.1 435.596 348.953 435.717 346.875 435.637C349.224 430.574 351.541 425.869 353.857 421.165ZM397.063 408.887C393.441 407.218 390.11 407.362 388.268 411.316C386.863 414.33 387.679 417.308 390.629 419.112C394.177 421.28 396.972 419.352 399.362 416.824C402.413 413.597 399.831 411.499 397.063 408.887Z" fill="#FAF2C4"/>
<path d="M422.769 410.956C422.202 407.179 421.691 403.391 421.039 399.628C420.765 398.043 420.195 396.51 420.165 394.517C426.957 394.877 429.987 390.588 432.817 385.998C435.267 384.814 437.716 383.63 440.109 381.965C440.632 380.99 441.213 380.495 441.793 380C445.821 378.914 448.162 372.356 445.769 368.627C444.706 366.972 443.044 365.619 442.32 363.855C441.801 362.59 442.386 360.871 442.683 359.074C446.569 357.909 450.251 357.025 454.332 356.567C455.675 358.236 456.62 359.479 457.564 360.722C458.29 359.113 459.016 357.505 459.742 355.896C466.191 355.754 472.641 355.611 479.489 356.017C481.384 362.839 483.16 363.848 490.959 362.857C499.564 361.764 506.051 367.728 505.827 377.357C503.042 376.871 500.367 376.204 497.658 376.002C495.935 375.874 494.136 376.328 492.417 376.724C491.179 377.009 490.018 377.629 488.729 377.754C484.25 375.206 481.377 378.43 481.544 385.592C484.241 386.06 486.987 386.535 489.755 387.243C489.776 387.474 489.814 387.937 489.804 388.331C489.782 389.766 489.769 390.807 489.382 391.818C486.463 391.195 483.918 390.603 481.374 390.011C480.975 390.559 480.576 391.108 480.177 391.656C485.914 395.682 491.679 399.687 492.659 407.401C491.064 408.076 488.509 409.038 488.263 408.625C486.767 406.113 485.796 403.288 484.441 400.069C483 400.622 480.149 400.98 479.947 401.912C478.7 407.675 473.429 406.649 469.874 408.367C466.302 410.094 462.681 412.029 458.863 412.839C455.422 413.568 452.989 414.738 451.44 417.884C445.907 415.188 442.288 415.747 440.6 419.566C438.676 423.918 441.083 426.333 444.722 428.361C443.098 429.743 441.488 430.705 439.985 431.814C437.213 433.857 434.505 435.987 431.422 438.11C428.29 439.756 425.53 439.646 422.494 437.827C420.338 435.146 418.724 432.411 416.542 430.25C415.016 428.738 412.713 428.011 410.757 426.933C412.737 424.508 414.716 422.082 417.101 419.478C420.478 420.388 423.504 420.858 425.251 417.535C426.727 414.727 425.367 412.487 422.769 410.956Z" fill="#F8EDB4"/>
<path d="M486.712 585.599C487.184 589.07 487.655 592.542 488.104 595.852C484.545 598.555 481.11 601.164 476.974 604.306C482.645 605.905 486.859 609.967 492.911 607.666C494.191 612.121 495.094 616.108 495.831 620.431C493.725 623.686 497.783 625 497.783 625C497.783 625 489.966 626.747 486.283 627.261C481.617 627.285 477.343 627.562 471.783 627.5C466.868 627.104 462.177 627.571 458.155 627.261C455.985 627.04 453.815 626.819 451.268 626.236C453.496 624.14 456.073 622.362 458.713 620.682C462.059 618.551 461.422 615.389 459.279 613.659C457.22 611.997 453.18 610.452 451.286 611.391C447.719 613.16 444.944 616.637 442.117 619.661C441.291 620.545 441.403 622.297 441.085 623.651C440.618 623.673 440.15 623.694 439.188 623.556C438.466 623.193 438.202 623.069 437.901 623.022C430.081 620.237 422.261 617.451 414.085 614.469C411.513 613.034 406.76 610.462 406.76 610.462C406.76 610.462 396.263 605.757 391.078 602.452C389.608 601.442 388.574 600.908 387.663 600.309C386.944 599.795 385.284 597.7 383.811 596.647C388.991 595.644 394.951 595.216 399.671 594.244C402.486 593.566 404.552 593.092 406.618 592.617C412.376 591.508 418.134 590.398 424.201 589.038C445.874 583.381 467.238 577.975 488.601 572.563C489.633 572.301 490.653 571.988 492.096 572.1C491.239 582.436 481.572 581.516 475.031 584.64C475.29 585.416 475.548 586.192 475.807 586.968C479.442 586.512 483.077 586.055 486.712 585.599ZM460.594 600.05C458.041 602.825 459.704 605.179 462.029 606.363C463.046 606.881 466.476 605.328 466.756 604.207C467.863 599.779 464.238 599.963 460.594 600.05Z" fill="#D5C08A"/>
<path d="M492.766 407.052C491.679 399.687 485.914 395.682 480.177 391.656C480.576 391.108 480.975 390.559 481.374 390.011C483.918 390.603 486.463 391.195 489.777 391.867C491.602 391.998 492.659 392.049 493.899 392.386C494.518 393.155 494.864 393.864 495.407 394.081C496.767 394.623 498.203 395.084 499.643 395.224C499.912 395.25 500.88 393.215 500.595 392.842C499.733 391.713 498.492 390.8 497.241 390.075C496.614 389.712 495.645 389.942 494.633 389.607C492.895 388.853 491.355 388.395 489.814 387.937C489.814 387.937 489.776 387.474 489.78 386.826C489.463 383.485 489.142 380.792 488.822 378.1C490.018 377.629 491.179 377.009 492.417 376.724C494.136 376.328 495.935 375.874 497.658 376.002C500.367 376.204 503.042 376.871 505.827 377.357C506.051 367.728 499.564 361.764 490.959 362.857C483.16 363.848 481.384 362.839 479.88 356.173C501.073 356.709 520.644 362.812 538.69 374.551C536.825 376.737 534.979 378.849 532.756 380.43C529.151 382.994 525.576 386.21 521.487 387.346C514.873 389.183 513.035 395.048 509.9 399.487C507.357 403.089 506.225 404.249 503.044 399.477C501.044 402.416 499.434 404.784 497.447 407.527C495.637 407.619 494.202 407.335 492.766 407.052Z" fill="#DAC690"/>
<path d="M575.003 575.836C573.821 575.785 572.834 572.28 571.847 570.421C571.26 569.315 570.786 567.706 569.858 567.354C569.013 567.033 567.259 567.789 566.536 568.61C562.827 572.822 559.52 572.506 556.254 568.179C554.468 565.812 552.333 563.648 550.915 561.091C550.304 559.987 550.546 557.66 551.37 556.677C555.572 551.666 555.654 551.643 549.568 548.868C549.053 548.633 548.606 548.254 547.865 547.63C548.582 546.701 549.561 546.084 551.233 545.214C561.277 540.431 570.628 535.9 579.978 531.369C585.129 529.093 589.327 526.225 594.5 524C596.148 523.291 602.774 516.757 601 523C599.226 529.243 600.167 530.32 594.245 542.849C588.323 555.379 576.185 575.888 575.003 575.836Z" fill="#B5A070"/>
<path d="M376.706 539.143C366.183 541.194 356.108 543.55 345.283 545.5C341.407 536.379 338.695 524.649 335.783 515C341.974 514.908 346.657 517.265 352.612 517.852C355.945 521.798 356.891 527.66 363.751 527.519C364.327 527.507 365.312 528.178 365.447 528.688C366.617 533.099 370.301 534.038 374.274 535.059C375.672 535.418 376.626 537.315 377.783 538.51C377.499 538.699 377.192 538.845 376.706 539.143Z" fill="#F8F0C1"/>
<path d="M334.718 486.461C335.094 483.183 335.543 480.367 336.499 477.261C338.941 480.675 340.877 484.378 342.753 488.431C341.1 491.983 342.444 494.667 345.342 495.32C346.839 495.657 348.966 493.195 351.232 491.999C355.553 491.508 355.964 493.879 355.804 496.9C355.628 500.231 355.349 503.682 359.377 505.261C362.535 506.499 366.225 507.398 369.283 509C364.899 511.442 358.875 514.586 354.283 516.5C352.073 513.495 349.081 511.003 345.342 512.5C342.918 513.47 340.999 511.884 340.783 509C340.49 505.08 338.236 504.727 334.783 505C334.152 498.961 335.422 492.962 334.718 486.461Z" fill="#F8F0C1"/>
<path d="M493.973 619.131C492.978 615.425 491.983 611.719 491 607.594C495.89 605.952 493.268 602.095 493.723 599.352C497.128 598.023 502.77 600.606 505.579 604.6C506.261 605.569 507.319 606.945 508.232 606.966C513.168 607.082 515.601 609.392 515.259 614.164C521.595 615.48 526.419 613.833 529.986 608.655C532.581 604.888 535.999 606.036 539.626 607.729C532.679 611.586 525.458 615.22 517.962 619.045C517.687 619.236 517.28 619.194 516.712 619.39C510.435 621.183 499.493 625.446 499 623.946C498.507 622.446 497.293 618.705 493.973 619.131Z" fill="#E0CD96"/>
<path d="M334.585 505.003C338.099 504.3 340.492 505.352 340.786 509.272C341.002 512.156 342.867 513.086 345.291 512.116C349.031 510.618 351.228 512.346 353.324 515.6C353.27 516.52 353.026 517.01 352.783 517.5C347.648 517.173 342.383 516.332 336.783 516C335.677 512.303 335.166 509.124 334.585 505.003Z" fill="#F6E8AC"/>
<path d="M584.343 418.816C580.83 417.653 576.688 416.824 573.56 414.58C569.487 411.66 569.283 407.129 571.664 402.299C573.589 403.923 575.369 405.884 577.434 408.024C579.867 411.642 582.016 415.081 584.343 418.816Z" fill="#B5A070"/>
<path d="M562.912 392.506C561.842 393.181 560.547 394.018 559.428 393.826C557.997 393.581 556.708 392.506 555.358 391.789C556.04 390.68 556.722 389.571 557.615 388.204C559.473 389.367 561.119 390.789 562.912 392.506Z" fill="#B5A070"/>
<path d="M459.326 355.822C459.016 357.505 458.29 359.113 457.564 360.722C456.62 359.479 455.675 358.236 454.733 356.62C456.127 356.08 457.519 355.914 459.326 355.822Z" fill="#DAC690"/>
<path d="M445.867 622.473C445.778 620.943 445.605 619.304 446.342 618.442C448.86 615.496 451.314 612.126 454.571 610.328C456.3 609.373 460.126 610.666 462.109 612.146C464.174 613.686 464.89 616.628 461.852 618.757C459.456 620.436 457.122 622.204 454.686 624.259C451.808 623.964 449.004 623.342 445.867 622.473Z" fill="#C2AB77"/>
<path d="M439.802 624.275C440.018 624.051 440.269 624.157 440.628 624.491C440.469 624.606 440.169 624.569 439.802 624.275Z" fill="#C2AB77"/>
<path d="M506.782 498.005C504.68 494.004 505.9 490.099 507.227 486.251C508.315 483.094 507.707 480.712 504.582 479.203C501.735 477.827 500.54 475.678 500.621 472.411C500.663 470.724 499.234 469.051 498.96 467.296C498.419 463.844 497.879 460.316 498.116 456.873C498.177 455.997 501.259 454.517 502.768 454.716C506.259 455.178 508.823 454.637 511.122 451.744C511.76 450.942 514.078 451.349 515.608 451.452C516.121 451.487 516.528 452.611 517.076 452.706C523.474 453.814 529.877 454.945 536.326 455.615C536.843 455.669 538.22 452.361 538.232 450.609C538.239 449.488 536.664 448.057 535.465 447.276C527.253 441.923 527.332 433.974 529.015 425.284C532.642 424.922 535.72 424.924 538.848 425.283C540.37 427.994 541.842 430.35 543.314 432.705C543.842 432.552 544.37 432.399 544.898 432.247C544.517 428.827 544.137 425.406 543.884 421.775C544.218 421.305 544.463 421.088 544.746 420.914C550.334 425.776 555.859 430.715 561.579 435.417C562.43 436.117 565.324 435.972 565.371 435.772C566.623 430.429 569.214 432.132 572.656 435.306C573.562 432.208 574.044 429.675 575.08 427.394C575.592 426.268 577.001 425.185 578.224 424.822C580.88 424.033 583.677 423.719 587.065 423.276C591.687 432.248 591.811 431.092 595.783 440C595.807 440.72 599.68 451.504 599.325 452.667C597.665 453.982 596.383 454.854 594.836 455.779C593.652 456.39 592.734 456.947 591.475 457.622C588.975 458.975 586.815 460.21 584.655 461.444C581.814 462.972 578.974 464.5 575.536 466.365C564.202 472.075 553.464 477.448 542.727 482.821C541.917 483.13 541.107 483.438 539.682 483.988C534.305 486.478 529.544 488.726 524.783 490.974C523.294 491.559 521.805 492.144 519.686 492.984C514.964 494.828 510.873 496.416 506.782 498.005Z" fill="#B5A070"/>
<path d="M355.066 518.2C355.064 517.477 355.308 516.987 355.664 516.248C360.068 513.903 364.357 511.809 368.96 509.109C370.586 506.884 366.745 502.917 372.2 503.005C375.875 503.105 379.248 503.776 382.364 503.156C387.771 502.078 398.4 505.461 401.773 510.431C402.464 513.532 403.155 516.225 403.498 519.029C399.226 523.024 399.8 528.016 399.773 532.861C392.715 534.578 385.657 536.296 378.203 537.986C376.762 536.816 375.9 535.001 374.637 534.658C371.047 533.681 367.719 532.783 366.662 528.565C366.54 528.077 365.65 527.435 365.129 527.446C358.932 527.582 358.078 521.974 355.066 518.2ZM389.18 511.508C389.694 510.722 390.712 509.866 390.614 509.165C390.432 507.849 389.782 506.481 388.947 505.438C388.669 505.091 386.491 505.561 386.445 505.855C386.233 507.213 386.281 508.688 386.622 510.022C386.781 510.644 387.816 511.042 389.18 511.508Z" fill="#E9D7A1"/>
<path d="M403.847 518.919C403.155 516.225 402.464 513.532 401.991 510.159C403.74 507.651 405.269 505.822 407.032 504.008C407.265 504.023 407.73 504.056 407.744 504.419C409.228 506.943 410.698 509.103 412.271 511.414C419.398 504.105 419.812 504.19 425.042 511.914C425.819 513.061 427.698 514.725 428.416 514.45C434.352 512.179 440.013 511.251 445.353 515.773C448.694 512.59 450.52 516.51 452.643 517.611C447.129 519.567 441.963 521.315 436.797 523.063C430.086 524.912 423.376 526.761 416.219 528.25C414.61 521.16 409.349 519.879 403.847 518.919Z" fill="#F8EDB4"/>
<path d="M403.498 519.029C409.349 519.879 414.61 521.16 415.8 528.292C410.739 530.095 405.648 531.496 400.165 532.879C399.8 528.016 399.226 523.024 403.498 519.029Z" fill="#DAC690"/>
<path d="M484.104 586.866C480.427 587.583 477.056 588.152 473.685 588.722C473.414 588.003 473.143 587.285 472.871 586.567C478.849 583.382 487.897 583.87 488.683 574.112C489.801 573.252 490.938 572.78 492.388 572.294C491.988 578.271 490.176 583.629 484.104 586.866Z" fill="#E9D7A1"/>
<path d="M490.806 504.039C490.806 504.039 491.29 504 491.527 504.053C491.624 504.376 491.428 504.597 490.976 504.865C490.775 504.963 490.707 504.916 490.711 504.683C490.715 504.449 490.806 504.039 490.806 504.039Z" fill="#10121D"/>
<path d="M492.659 407.401C494.202 407.335 495.637 407.619 497.441 407.882C502.561 410.078 504.722 413.793 505.478 419.019C506.13 423.525 508.184 427.813 509.217 432.289C509.533 433.657 508.921 435.679 507.986 436.742C507.349 437.466 505.197 437.533 504.09 437.051C498.469 434.6 493.284 433.381 489.31 439.793C488.88 440.487 487.365 440.446 486.768 441.116C485.93 442.057 485.023 443.349 485.035 444.482C485.042 445.154 486.697 446.264 487.711 446.395C491.978 446.944 492.944 448.751 490.72 452.495C490.055 453.615 488.845 454.829 488.936 455.911C489.378 461.141 485.486 461.302 482.166 461.861C477.931 462.574 476.981 459.316 475.956 456.212C474.344 451.326 474.199 451.265 470.515 452.76C466.544 455.363 463.991 454.88 462.528 450.606C461.541 447.722 460.029 446.141 456.57 448.274C455.298 449.058 452.934 448.003 451.062 447.899C449.535 447.814 447.9 447.56 446.488 447.976C443.853 448.751 441.345 449.958 438.63 450.633C437.742 448.005 437.315 445.562 436.188 443.502C435.087 441.491 433.271 439.872 431.77 438.081C434.505 435.987 437.213 433.857 439.985 431.814C441.488 430.705 443.098 429.743 445.114 428.352C452.471 426.949 453.617 425.112 451.769 418.053C452.989 414.738 455.422 413.568 458.863 412.839C462.681 412.029 466.302 410.094 469.874 408.367C473.429 406.649 478.7 407.675 479.947 401.912C480.149 400.98 483 400.622 484.441 400.069C485.796 403.288 486.767 406.113 488.263 408.625C488.509 409.038 491.064 408.076 492.659 407.401ZM473.824 434.18C474.948 437.946 477.625 439.807 481.279 438.715C483.045 438.187 485.091 436.115 485.587 434.343C486.564 430.857 485.456 427.784 481.173 427.043C477.046 426.329 474.592 428.421 473.824 434.18Z" fill="#F6E8AC"/>
<path d="M438.785 450.986C441.345 449.958 443.853 448.751 446.488 447.976C447.9 447.56 449.535 447.814 451.062 447.899C452.934 448.003 455.298 449.058 456.57 448.274C460.029 446.141 461.541 447.722 462.528 450.606C463.991 454.88 466.544 455.363 470.425 453.084C471.052 457.511 466.667 457.983 464.382 460.327C462.681 462.072 460.428 464.259 460.306 466.359C460.049 470.759 465.607 473.257 470.198 471.236C471.657 470.594 473.034 469.768 475.721 469.708C475.183 471.288 474.646 472.868 473.504 474.746C470.445 475.236 467.92 475.12 465.548 475.668C451.417 478.934 442.048 495.67 451.798 509.977C452.435 512.136 453.072 514.294 453.754 516.798C453.712 517.386 453.543 517.529 453.141 517.489C450.52 516.51 448.694 512.59 445.353 515.773C440.013 511.251 434.352 512.179 428.416 514.45C427.698 514.725 425.819 513.061 425.042 511.914C419.812 504.19 419.398 504.105 412.271 511.414C410.698 509.103 409.228 506.942 407.976 504.154C410.999 501.576 414.223 500.024 416.534 497.601C424.646 489.097 428.504 477.285 438.028 469.73C439.143 468.845 439.368 464.648 438.379 463.721C435.639 461.153 436.215 459.012 437.487 456.238C438.226 454.628 438.372 452.746 438.785 450.986Z" fill="#DAC690"/>
<path d="M452.091 510.14C442.048 495.67 451.417 478.934 465.548 475.668C467.92 475.12 470.445 475.236 473.34 475.065C477.416 477.491 481.051 479.899 484.735 482.653C484.783 483 484.783 483.001 484.783 483.001C481.251 481.677 477.818 479.722 474.169 479.156C465.766 477.854 459.056 481.241 455.091 488.724C451.233 496.007 451.485 503.402 456.63 510.25C457.286 511.123 457.87 512.051 457.771 513.922C455.975 512.716 454.179 511.51 452.091 510.14Z" fill="#C2AB77"/>
<path d="M515.669 399.328C521.972 387.767 534.358 385.498 543.203 394.501C535.657 391.388 528.613 390.205 522.658 397.466C516.942 404.437 520.439 411.364 522.811 418.636C515.768 416.458 513.184 407.71 515.669 399.328Z" fill="#B5A070"/>
<path d="M544.921 420.623C544.463 421.088 544.218 421.305 543.589 421.915C541.711 423.153 540.255 424.04 538.798 424.927C535.72 424.924 532.642 424.922 529.159 424.895C527.99 423.852 527.225 422.833 525.867 421.025C532.543 422.595 538.951 422.997 542.603 417.973C545.653 413.776 546.5 407.978 548.238 403.124C551.526 406.661 550.612 412.543 544.921 420.623Z" fill="#E9D7A1"/>
<path d="M490.812 503.63C490.806 504.039 490.715 504.449 490.679 504.656C489.271 505.22 487.898 505.577 486.159 505.994C486.376 500.567 486.96 495.082 487.544 489.596C488.057 489.602 488.57 489.608 489.083 489.615C492.033 493.73 492.224 498.333 490.812 503.63Z" fill="#E9D7A1"/>
<path d="M517.475 437.689C513.518 434.506 513.775 432.389 519.29 430.027C518.711 433.048 518.272 435.337 517.475 437.689Z" fill="#C2AB77"/>
<path d="M545.285 395.522C545.312 395.511 545.259 395.533 545.285 395.522Z" fill="#B5A070"/>
<path d="M484.784 482.999L485.154 483.218C485.154 483.218 484.877 483.207 484.83 483.104C484.783 483.001 484.784 482.999 484.784 482.999Z" fill="#C2AB77"/>
<path d="M548.778 561.961C549.85 560.995 550.766 560.334 551.683 559.673C551.822 560.874 552.514 562.486 551.989 563.195C550.784 564.819 548.986 566.003 547.428 567.365C547.049 566.999 546.67 566.632 546.291 566.266C547.068 564.933 547.846 563.6 548.778 561.961Z" fill="#E9D7A1"/>
<path d="M338.965 456.019C341.418 449.507 343.87 442.995 346.582 436.24C348.953 435.717 351.1 435.596 353.164 435.115C355.233 434.632 357.172 433.518 359.25 433.166C362.386 432.635 364.339 433.694 362.8 437.297C361.187 441.075 362.812 442.527 366.119 444.56C369.915 446.893 373.292 448.014 377.59 447.076C378.719 446.83 380.189 447.474 381.323 448.058C383.859 449.365 385.597 449.25 386.862 446.288C388.121 443.34 390.044 443.352 392.232 445.625C394.842 448.336 396.652 448.41 398.285 444.334C399.491 441.324 401.913 438.802 404.6 434.886C403.098 431.736 403.964 428.065 410.398 426.998C412.713 428.011 415.016 428.738 416.542 430.25C418.724 432.411 420.338 435.146 422.431 438.199C421.507 444.689 418.886 449.48 413.578 452.958C408.931 456.003 408.923 458.83 411.353 464.142C412.171 465.931 412.515 469.497 411.521 470.284C407.511 473.453 406.149 477.38 405.365 482.199C404.532 487.325 398.963 489.19 396.011 485.688C403.108 481.427 405.699 476.853 404.707 470.155C404.398 468.072 404.217 465.429 400.803 466.639C400.835 463.43 402.853 459.808 397.671 458.681C393.044 454.767 388.051 454.981 383.467 457.315C378.153 460.02 375.176 465.046 374.97 470.932C374.743 477.413 378.417 481.829 384.05 483.012C384.477 483.021 384.648 483.024 385.002 483.335C388.387 484.43 391.587 485.217 394.785 486.46C394.765 489.964 394.747 493.012 394.442 495.882C390.314 492.524 386.815 488.01 381.149 492.755C379.609 489.245 378.235 486.116 376.799 482.644C376.191 481.482 375.824 480.396 375.069 479.884C370.323 476.665 365.35 473.764 360.73 470.378C357.203 467.792 353.552 466.938 349.221 466.705C346.866 466.578 344.348 464.125 342.466 462.177C340.878 460.532 340.101 458.101 338.965 456.019Z" fill="#E9D7A1"/>
<path d="M432.813 385.569C429.987 390.588 426.957 394.877 420.151 394.129C418.645 393.92 417.558 393.664 416.093 392.873C415.519 391.888 415.37 391.408 415.117 390.991C409.991 382.545 414.158 374.554 423.958 373.961C425.209 373.885 426.434 373.387 427.672 373.084C432.282 375.869 432.984 380.318 432.813 385.569Z" fill="#E9D7A1"/>
<path d="M397.364 409.132C399.831 411.499 402.413 413.597 399.362 416.824C396.972 419.352 394.177 421.28 390.629 419.112C387.679 417.308 386.863 414.33 388.268 411.316C390.11 407.362 393.441 407.218 397.364 409.132Z" fill="#E9D7A1"/>
<path d="M427.77 373.223C426.817 373.709 425.57 374.146 424.27 374.223C414.086 374.832 409.943 382.558 415.27 391.223C415.533 391.651 415.979 392.383 416.27 393.223C410.648 390.921 407.598 385.846 409.283 380.5C411.148 374.582 417.884 370.253 423.563 371.411C424.89 371.682 426.148 372.596 427.77 373.223Z" fill="#D5C08A"/>
<path d="M422.386 410.965C425.367 412.487 426.727 414.727 425.251 417.535C423.504 420.858 420.478 420.388 417.156 419.136C415.677 413.654 416.792 411.937 422.386 410.965Z" fill="#E9D7A1"/>
<path d="M441.797 379.606C441.213 380.495 440.632 380.99 439.918 381.742C438.147 381.145 436.51 380.291 434.874 379.437C435.976 378.006 436.829 375.735 438.232 375.318C441.07 374.476 441.844 376.743 441.797 379.606Z" fill="#E9D7A1"/>
<path d="M394.729 496.061C394.747 493.012 394.765 489.964 395.036 486.445C395.457 485.961 395.624 485.947 395.791 485.933C398.963 489.19 404.532 487.325 405.365 482.199C406.149 477.38 407.511 473.453 411.521 470.284C412.515 469.497 412.171 465.931 411.353 464.142C408.923 458.83 408.931 456.003 413.578 452.958C418.886 449.48 421.507 444.689 422.729 438.391C425.53 439.646 428.29 439.756 431.422 438.11C433.271 439.872 435.087 441.491 436.188 443.502C437.315 445.562 437.742 448.005 438.63 450.633C438.372 452.746 438.226 454.628 437.487 456.238C436.215 459.012 435.639 461.153 438.379 463.721C439.368 464.648 439.143 468.845 438.028 469.73C428.504 477.285 424.646 489.097 416.534 497.601C414.223 500.024 410.999 501.576 407.962 503.791C407.73 504.056 407.265 504.023 407.015 503.632C405.019 501.819 403.408 500.167 401.49 499.036C399.384 497.794 396.995 497.032 394.729 496.061Z" fill="#E0CD96"/>
<path d="M451.44 417.884C453.617 425.112 452.471 426.949 445.176 427.999C441.083 426.333 438.676 423.918 440.6 419.566C442.288 415.747 445.907 415.188 451.44 417.884Z" fill="#E0CD96"/>
<path d="M488.729 377.754C489.142 380.792 489.463 383.485 489.758 386.594C486.987 386.536 484.241 386.06 481.544 385.592C481.377 378.43 484.25 375.206 488.729 377.754Z" fill="#F6E8AC"/>
<path d="M489.804 388.331C491.355 388.395 492.895 388.853 494.503 389.887C494.286 391.01 494.001 391.555 493.716 392.101C492.659 392.049 491.602 391.998 490.15 391.897C489.769 390.807 489.782 389.766 489.804 388.331Z" fill="#F6E8AC"/>
<path d="M460.339 601.417C463.4 601.363 466.772 601.049 465.911 605.247C465.692 606.309 462.555 607.899 461.587 607.453C459.374 606.432 457.733 604.287 460.339 601.417Z" fill="#C2AB77"/>
<path d="M497.783 622.5C496.988 623.192 495.91 623.289 494.783 623.5C492.427 622.237 490.77 621.143 492.607 618.007C496.069 617.259 498.381 617.989 497.783 622.5Z" fill="#C2AB77"/>
<path d="M493.899 392.386C494.001 391.555 494.286 391.01 494.7 390.184C495.645 389.942 496.614 389.712 497.241 390.075C498.492 390.8 499.733 391.713 500.595 392.842C500.88 393.215 499.912 395.25 499.643 395.224C498.203 395.084 496.767 394.623 495.407 394.081C494.864 393.864 494.518 393.155 493.899 392.386Z" fill="#F8EDB4"/>
<path d="M338.924 456.456C340.101 458.101 340.878 460.532 342.466 462.177C344.348 464.125 346.866 466.578 349.221 466.705C353.552 466.938 357.203 467.792 360.73 470.378C365.35 473.764 370.323 476.665 375.069 479.884C375.824 480.396 376.191 481.482 376.426 482.658C369.432 485.485 368.469 488.203 370.982 494.099C372.092 496.705 371.566 500.008 371.783 502.995C366.745 502.917 370.586 506.884 369.055 508.761C365.683 507.765 362.535 506.499 359.377 505.261C355.349 503.682 355.628 500.231 355.804 496.9C355.964 493.879 355.553 491.508 351.168 491.64C349.563 486.509 346.512 486.497 342.813 488.081C340.877 484.378 338.941 480.675 336.635 476.905C337.137 470.19 338.01 463.542 338.924 456.456Z" fill="#FAF2C4"/>
<path d="M342.753 488.431C346.512 486.497 349.563 486.509 350.745 491.638C348.966 493.195 346.839 495.657 345.342 495.32C342.444 494.667 341.1 491.983 342.753 488.431Z" fill="#E9D7A1"/>
<path d="M538.848 425.283C540.255 424.04 541.711 423.153 543.462 422.126C544.137 425.406 544.517 428.827 544.898 432.247C544.37 432.399 543.842 432.552 543.314 432.705C541.842 430.35 540.37 427.994 538.848 425.283Z" fill="#D5C08A"/>
<g filter="url(#filter0_d_1_2)">
<path d="M324.193 485.826C324.732 490 322.113 491.48 319.112 492.78C317.156 493.627 315.31 494.728 312.768 495.932C305.44 499.882 298.69 503.5 292.09 507.372C273.698 518.161 255.188 528.875 239.484 543.481C233.462 549.082 228.219 555.685 223.459 562.423C219.977 567.351 220.32 571.698 221.774 574.464C225.673 568.184 228.771 560.119 234.426 554.743C245.345 544.363 257.702 535.495 269.493 526.038C269.767 525.819 270.396 526.041 270.834 526.039C270.808 526.021 270.759 525.983 270.767 526.35C269.731 529.451 268.685 532.186 267.319 535.029C255.146 542.343 244.449 550.942 235.633 561.703C229.874 568.732 226.306 576.581 227.785 586.368C227.993 588.151 228.256 589.569 228.518 590.988C228.366 592.484 228.215 593.98 227.923 596.847C225.984 594.29 224.878 592.831 223.382 590.855C214.671 578.232 212.897 565.945 222.26 553.177C231.484 541.884 241.767 532.205 253.862 524.646C271.778 513.447 289.87 502.53 308.198 491.389C309.985 490.482 311.462 489.678 312.938 488.874C316.093 487.261 319.247 485.648 322.69 483.841C323.358 484.288 323.737 484.929 324.193 485.826Z" fill="url(#paint0_linear_1_2)"/>
<path d="M586.692 389.812C590.785 388.718 594.527 387.783 599.008 386.646C603.94 385.433 608.119 384.36 612.327 383.422C638.948 377.489 665.708 372.63 693.168 373.978C702.181 374.42 710.962 376.035 718.728 381.112C726.641 388.751 728.536 398.339 727.367 409.183C725.458 407.649 723.637 405.892 722.341 403.809C719.076 398.56 714.838 394.671 708.494 392.742C696.599 388.637 684.746 388.458 672.345 390.082C663.896 390.109 655.809 394.195 647.637 389.464C646.843 389.062 646.266 388.865 645.688 388.667C670.489 384.333 695.276 378.806 719.704 391.568C717.868 386.855 714.355 384.218 710.151 383.229C703.392 381.637 696.469 380.018 689.578 379.832C655.415 378.91 622.523 386.722 589.461 395.18C587.844 395.543 586.529 395.916 585.214 396.289C583.496 395.387 581.779 394.486 580.062 393.584C580.554 392.906 581.045 392.228 581.537 391.55C583.138 391.023 584.739 390.497 586.692 389.812Z" fill="url(#paint1_linear_1_2)"/>
<path d="M284.762 599.004C285.253 600.42 285.744 601.836 286.225 603.631C285.043 606.87 282.96 606.791 280.172 605.456C279.554 604.981 279.315 604.885 279.014 604.489C277.873 598.616 275.138 595.332 268.898 595.734C266.008 595.92 263.051 595.057 259.841 594.633C259.982 592.938 260.102 591.493 260.438 589.749C264.304 588.89 267.955 588.331 271.971 587.715C269.61 582.514 267.258 577.333 264.5 571.256C261.205 578.046 258.342 583.946 255.224 590.074C252.983 594.216 250.997 598.132 248.774 602.291C245.627 604.869 243.572 603.392 241.816 600.678C242.518 598.902 243.127 597.453 243.992 595.77C249.389 585.687 254.529 575.836 259.874 565.772C260.698 564.566 261.318 563.574 261.938 562.582C263.268 562.399 264.599 562.217 266.436 562.371C267.529 563.149 268.116 563.59 268.846 564.353C274.247 576.118 279.504 587.561 284.762 599.004Z" fill="url(#paint2_linear_1_2)"/>
<path d="M650.081 412.307C651.775 405.11 650.116 401.688 643.476 400.008C632.417 397.21 621.299 398.621 610.276 400.517C604.053 401.587 597.905 403.097 590.466 404.676C590.146 402.82 589.8 400.816 590.128 398.592C595.343 397.391 599.853 396.227 604.431 395.465C618.847 393.065 633.285 390.403 648.036 395.197C650.008 396.597 651.731 397.787 653.454 398.978C657.12 405.97 656.297 410.61 650.111 416.059C649.867 415.001 649.956 413.833 650.081 412.307Z" fill="url(#paint3_linear_1_2)"/>
<path d="M307.897 605.423C306.299 604.616 304.249 604.15 303.283 602.867C302.755 602.166 304.062 600.083 305.243 598.412C308.948 597.899 311.952 597.597 315.4 597.336C319.135 597.051 322.448 596.868 325.71 596.358C329.095 595.829 331.939 594.288 331.373 590.247C330.843 586.464 327.976 585.115 324.472 585.275C320.346 585.463 316.233 585.911 311.746 586.186C304.638 585.882 300.588 582.226 298.574 575.581C298.543 565.639 301.685 562.028 311.092 560.808C315.99 560.172 320.89 559.556 325.789 558.931C328.674 559.018 331.895 558.527 332.155 563.355C329.498 564.86 327.055 565.769 324.184 566.626C320.735 566.992 317.712 567.41 314.365 567.77C313.618 567.817 313.196 567.922 312.531 567.998C312.289 567.969 311.82 568.103 311.434 568.049C307.206 568.223 305.207 570.192 305.685 574.093C306.159 577.958 308.8 579.324 312.38 579.116C314.831 578.974 317.269 578.594 320.158 578.349C327.507 577.667 333.636 578.839 337.625 585.734C339.938 596.587 335.892 602.414 325.234 603.74C319.475 604.456 313.678 604.872 307.897 605.423Z" fill="url(#paint4_linear_1_2)"/>
<path d="M272.692 536.448C279.825 520.151 294.242 511.977 307.851 502.955C309.637 501.772 311.566 500.806 313.623 499.468C315.503 498.264 317.152 497.255 318.886 496.422C320.2 495.79 321.622 495.383 323.008 494.871C324.432 500.511 324.432 500.511 319.436 503.317C313.122 507.045 307.274 510.207 301.783 513.899C293.253 519.637 284.639 525.445 279.592 534.838C278.673 536.546 279.007 538.928 278.763 540.998C281.742 544.39 284.721 547.782 287.452 550.892C282.084 551.222 276.768 549.201 272.823 543.321C272.696 540.967 272.724 538.925 272.692 536.448Z" fill="url(#paint5_linear_1_2)"/>
<path d="M631.721 447.997C630.806 444.236 632.121 441.942 636.654 441.531C637.981 441.845 638.727 442.012 639.739 442.432C642.568 443.629 645.132 444.572 647.969 445.709C655.753 448.94 663.264 451.977 670.865 455.178C671.128 455.287 671.3 455.23 671.473 455.174C671.319 455.015 671.165 454.856 671.029 454.344C667.597 448.655 664.148 443.319 660.61 437.664C659.13 435.175 657.74 433.004 656.229 430.512C655.935 429.396 655.336 428.297 655.653 427.857C658.307 424.18 660.255 424.418 663.619 428.969C668.608 436.895 673.523 444.508 678.54 452.41C679.439 453.848 680.236 454.997 681.032 456.146C683.653 462.806 682.251 465.041 674.987 464.462C672.238 463.388 670.134 462.605 667.779 461.565C659.456 458.058 651.384 454.809 641.965 451.017C646.581 458.22 650.399 464.179 654.374 470.449C655.802 472.804 657.072 474.849 658.343 476.893C657.279 478.506 656.408 480.338 655.011 481.574C654.673 481.873 652.592 480.2 651 478.871C644.365 468.204 638.043 458.1 631.721 447.997Z" fill="url(#paint6_linear_1_2)"/>
<path d="M702.789 446.003C701.189 446.005 699.588 446.007 697.531 445.498C696.997 443.663 696.918 442.338 697.105 440.875C697.578 440.181 697.786 439.626 698.341 439.07C702.716 435.661 706.815 432.334 710.746 428.819C713.755 426.129 715.467 422.708 712.31 419.268C708.786 415.428 705.882 418.531 702.925 420.81C698.633 424.116 694.147 427.169 689.365 430.31C681.008 430.583 676.91 425.954 674.712 418.592C674.587 412.464 678.874 409.209 682.247 405.137C685.5 402.328 688.266 399.413 691.47 397.105C692.807 396.142 695.48 395.683 696.834 396.379C699.65 397.825 698.621 400.117 696.477 402.136C692.381 405.733 688.557 409.164 684.815 412.682C682.195 415.144 680.396 417.996 683.333 421.294C686.411 424.751 689.619 423.29 692.492 420.84C696.017 417.833 699.411 414.672 703.231 411.437C710.588 408.857 715.495 412.016 719.711 417.641C722.222 424.199 720.683 429.426 715.958 433.843C711.593 437.923 707.181 441.952 702.789 446.003Z" fill="url(#paint7_linear_1_2)"/>
<path d="M425.462 582.824C423.073 583.971 420.657 585.583 418.242 581.761C416.827 577.334 416.026 573.414 414.482 569.814C412.546 565.299 412.314 561.834 418.175 560.081C418.938 559.983 419.374 559.933 420.046 559.954C420.282 560.024 420.743 559.85 421.039 559.884C421.87 559.697 422.407 559.475 423.339 559.236C428.337 557.915 432.958 556.675 437.536 555.291C441.972 553.951 442.978 550.593 441.705 546.666C440.441 542.768 437.389 541.388 433.422 542.597C428.857 543.988 424.331 545.511 419.416 546.982C417.617 547.387 416.19 547.787 414.399 548.178C412.365 548.264 410.694 548.358 409.024 548.453C408.86 546.59 408.696 544.727 409.107 542.494C416.149 540.148 422.606 538.135 429.088 536.203C442.092 532.326 450.507 539.232 449.312 553.188C446.91 556.327 444.737 559.226 442.323 562.447C445.244 563.872 448.499 565.459 451.952 567.289C453.459 568.108 454.767 568.686 456.075 569.263C460.111 573.187 456.739 574.321 453.176 575.67C449.794 574.429 446.931 573.098 443.862 571.49C436.928 567.108 430.266 562.554 421.847 568.507C422.548 570.435 423.319 572.555 424.203 575.088C424.699 577.942 425.08 580.383 425.462 582.824Z" fill="url(#paint8_linear_1_2)"/>
<path d="M485.826 516.169C487.842 516.529 489.857 516.889 492.386 517.708C502.955 527.166 513.01 536.165 523.065 545.164C524.396 549.983 523.627 550.818 517.241 550.62C515.121 548.76 513.486 547.246 511.692 545.436C509.906 545.19 508.212 544.966 506.662 545.341C502.454 546.357 498.307 547.626 494.046 548.435C490.173 538.852 500.307 541.613 503.066 537.416C499.019 533.596 494.927 529.733 489.909 524.996C489.139 533.943 488.491 541.477 487.738 549.399C487.488 551.109 487.342 552.432 487.079 554.145C486.723 557.297 486.484 560.059 486.245 562.821C484.289 563.815 482.332 564.81 480.375 565.804C479.784 564.157 479.192 562.511 478.713 560.045C480.184 547.403 481.424 535.564 482.993 523.768C483.34 521.156 484.851 518.698 485.826 516.169Z" fill="url(#paint9_linear_1_2)"/>
<path d="M378.418 576.333C379.52 581.302 380.621 586.27 381.826 591.622C377.204 597.471 376.86 597.499 373.94 592.317C373.11 588.601 372.445 585.202 371.663 581.037C369.925 573.568 368.304 566.864 366.559 559.65C362.042 560.606 357.887 561.484 353.731 562.363C352.052 561.581 349.522 561.223 348.873 559.925C347.599 557.378 349.484 555.76 352.809 555.021C363.972 552.583 374.38 550.252 384.788 547.921C390.129 548.094 391.12 549.566 388.537 554.677C383.325 556.018 378.707 557.057 373.87 558.145C375.478 564.577 376.948 570.455 378.418 576.333Z" fill="url(#paint10_linear_1_2)"/>
<path d="M551.709 537.663C549.757 537.176 547.805 536.689 545.505 535.607C540.269 523.968 535.381 512.924 530.493 501.879C529.223 497.011 532.082 496.609 536.231 497.435C538.924 502.62 541.104 507.417 543.388 512.57C545.906 518.452 548.32 523.977 550.905 529.895C554.482 528.157 557.674 526.605 561.221 525.007C565.349 523.173 569.121 521.386 572.894 519.598C574.832 519.407 577.02 518.608 578.61 519.263C579.498 519.629 579.393 522.407 579.379 524.606C569.918 529.296 560.813 533.479 551.709 537.663Z" fill="url(#paint11_linear_1_2)"/>
<path d="M619.823 473.532C621.448 474.822 623.072 476.112 624.697 477.402C623.496 478.7 622.295 479.998 620.551 481.668C613.506 485.596 607.004 489.152 600.273 492.834C602.209 496.453 603.813 499.451 605.688 502.955C612.698 498.906 619.261 495.116 625.823 491.326C627.888 490.562 629.952 489.798 632.391 489.042C633.431 490.743 634.097 492.435 634.421 494.64C627.563 498.824 621.115 502.621 614.506 506.115C610.724 508.114 606.681 509.622 602.756 511.351C601.409 509.72 600.061 508.088 598.401 505.867C595.953 501.167 593.643 497.133 591.8 492.896C591.331 491.818 592.341 490.097 592.99 488.561C602.147 483.478 610.985 478.505 619.823 473.532Z" fill="url(#paint12_linear_1_2)"/>
<path d="M616.035 458.012C618.227 462.832 613.947 463.377 611.14 465.595C603.311 469.965 596.046 473.987 588.495 478.036C587.443 478.615 586.679 479.168 585.914 479.72C581.619 475.393 581.811 473.782 587.421 469.897C594.066 466.44 600.362 463.078 606.876 459.439C610.035 458.968 612.192 453.774 616.035 458.012Z" fill="url(#paint13_linear_1_2)"/>
</g>
<path d="M372.2 503.005C371.566 500.008 372.092 496.705 370.982 494.099C368.469 488.203 369.432 485.485 376.489 483C378.235 486.116 379.609 489.245 381.149 492.755C386.815 488.01 390.314 492.524 394.442 495.882C396.995 497.032 399.384 497.794 401.49 499.036C403.408 500.167 405.019 501.819 406.782 503.618C405.269 505.822 403.74 507.651 401.992 509.751C398.4 505.461 387.771 502.078 382.364 503.156C379.248 503.777 375.875 503.105 372.2 503.005Z" fill="#F8F0C1"/>
<path d="M388.817 511.524C387.816 511.042 386.781 510.644 386.622 510.022C386.281 508.688 386.233 507.213 386.445 505.855C386.491 505.561 388.669 505.091 388.947 505.438C389.782 506.481 390.432 507.849 390.614 509.166C390.712 509.866 389.694 510.722 388.817 511.524Z" fill="#F8EDB4"/>
<path d="M420.046 561.954C419.997 561.573 420.239 561.49 420.64 561.742C420.743 561.85 420.282 562.024 420.046 561.954Z" fill="#0E2F39"/>
<path d="M473.793 433.784C474.592 428.421 477.046 426.329 481.173 427.043C485.456 427.784 486.564 430.857 485.587 434.343C485.091 436.115 483.045 438.187 481.279 438.715C477.625 439.807 474.948 437.946 473.793 433.784Z" fill="#DAC690"/>
<path d="M384.818 483.028C384.648 483.024 384.477 483.021 383.904 482.696C382.905 481.384 382.389 480.333 381.7 479.41C377.991 474.441 378.203 469.565 381.088 464.134C383.833 458.968 388.153 458.815 392.917 458.981C394.57 459.039 396.228 458.989 397.884 458.988C402.853 459.808 400.835 463.43 400.795 467.035C400.78 468.869 400.77 469.927 400.42 471.069C397.507 475.983 394.277 479.913 388.348 480.766C387.085 480.947 385.981 482.241 384.798 483.016C384.792 483.01 384.818 483.028 384.818 483.028Z" fill="#E0CD96"/>
<path d="M397.671 458.681C396.228 458.989 394.57 459.039 392.917 458.981C388.153 458.815 383.833 458.968 381.088 464.134C378.203 469.565 377.991 474.441 381.701 479.41C382.389 480.333 382.905 481.384 383.648 482.691C378.417 481.829 374.743 477.413 374.97 470.932C375.176 465.045 378.153 460.02 383.467 457.315C388.051 454.981 393.044 454.767 397.671 458.681Z" fill="#D5C08A"/>
<path d="M400.759 470.984C400.77 469.927 400.78 468.869 400.799 467.416C404.217 465.429 404.398 468.072 404.707 470.155C405.699 476.853 403.108 481.427 396.011 485.688C395.624 485.947 395.457 485.96 395.039 485.989C391.587 485.217 388.387 484.43 385.002 483.335C384.818 483.028 384.792 483.01 385.236 483.014C396.418 482.98 399.245 480.723 400.759 470.984Z" fill="#F6E8AC"/>
<path d="M312.531 569.998C312.773 570.027 312.455 570.357 312.455 570.357C312.455 570.357 312.035 570.329 311.928 570.216C311.82 570.103 312.289 569.969 312.531 569.998Z" fill="#0F404A"/>
<path d="M270.834 528.039C270.876 527.848 270.892 527.638 270.909 527.429C270.98 527.574 271.052 527.718 270.942 527.923C270.759 527.983 270.808 528.021 270.834 528.039Z" fill="#1BF1EE"/>
<path d="M670.954 456.778C671.165 456.856 671.319 457.015 671.473 457.174C671.3 457.23 671.128 457.287 670.865 457.178C670.774 457.013 670.896 456.858 670.954 456.778Z" fill="#105860"/>
<path d="M400.42 471.069C399.245 480.723 396.418 482.98 385.242 483.02C385.981 482.241 387.085 480.947 388.348 480.766C394.277 479.913 397.507 475.983 400.42 471.069Z" fill="#E9D7A1"/>
<path d="M438.671 593.681C437.228 593.989 435.57 594.039 433.917 593.981C429.153 593.815 424.833 593.968 422.088 599.134C419.203 604.565 418.991 609.441 422.701 614.41C423.389 615.333 423.905 616.384 424.648 617.691C419.417 616.829 415.743 612.413 415.97 605.932C416.176 600.045 419.153 595.02 424.467 592.315C429.051 589.981 434.044 589.767 438.671 593.681Z" fill="#D5C08A"/>
<path d="M441.759 605.984C441.77 604.927 441.78 603.869 441.799 602.416C445.217 600.429 445.398 603.072 445.707 605.155C446.699 611.853 444.108 616.427 437.011 620.688C436.624 620.947 436.457 620.96 436.039 620.989C432.587 620.217 429.387 619.43 426.002 618.335C425.818 618.028 425.792 618.01 426.236 618.014C437.418 617.98 440.245 615.723 441.759 605.984Z" fill="#F6E8AC"/>
<path d="M441.42 606.069C440.245 615.723 437.418 617.98 426.242 618.02C426.981 617.241 428.085 615.947 429.348 615.766C435.277 614.913 438.507 610.983 441.42 606.069Z" fill="#E9D7A1"/>
<path d="M425.818 617.028C425.648 617.024 425.477 617.02 424.904 616.696C423.905 615.384 423.389 614.332 422.7 613.41C418.991 608.441 419.203 603.565 422.088 598.134C424.833 592.968 429.153 592.815 433.917 592.981C435.57 593.039 437.228 592.989 438.884 592.988C443.853 593.808 441.835 597.43 441.795 601.034C441.78 602.869 441.77 603.927 441.42 605.069C438.507 609.983 435.277 613.913 429.348 614.766C428.085 614.947 426.981 616.241 425.798 617.016C425.792 617.01 425.818 617.028 425.818 617.028Z" fill="#E0CD96"/>
<path d="M441.759 604.984C441.77 603.927 441.78 602.869 441.799 601.416C445.217 599.429 445.398 602.072 445.707 604.155C446.699 610.853 444.108 615.427 437.011 619.688C436.624 619.947 436.457 619.96 436.039 619.989C432.587 619.217 429.387 618.43 426.002 617.335C425.818 617.028 425.792 617.01 426.236 617.014C437.418 616.98 440.245 614.723 441.759 604.984Z" fill="#F6E8AC"/>
<path d="M441.42 605.069C440.245 614.723 437.418 616.98 426.242 617.02C426.981 616.241 428.085 614.947 429.348 614.766C435.277 613.913 438.507 609.983 441.42 605.069Z" fill="#E9D7A1"/>
<path d="M438.671 592.681C437.228 592.989 435.57 593.039 433.917 592.981C429.153 592.815 424.833 592.968 422.088 598.134C419.203 603.565 418.991 608.441 422.701 613.41C423.389 614.333 423.905 615.384 424.648 616.691C419.417 615.829 415.743 611.413 415.97 604.932C416.176 599.045 419.153 594.02 424.467 591.315C429.051 588.981 434.044 588.767 438.671 592.681Z" fill="#B5A070"/>
<defs>
<filter id="filter0_d_1_2" x="211.9" y="373.751" width="523.884" height="248.672" filterUnits="userSpaceOnUse" color-interpolation-filters="sRGB">
<feFlood flood-opacity="0" result="BackgroundImageFix"/>
<feColorMatrix in="SourceAlpha" type="matrix" values="0 0 0 0 0 0 0 0 0 0 0 0 0 0 0 0 0 0 127 0" result="hardAlpha"/>
<feOffset dx="2" dy="10"/>
<feGaussianBlur stdDeviation="3.05"/>
<feComposite in2="hardAlpha" operator="out"/>
<feColorMatrix type="matrix" values="0 0 0 0 0 0 0 0 0 0 0 0 0 0 0 0 0 0 0.26 0"/>
<feBlend mode="normal" in2="BackgroundImageFix" result="effect1_dropShadow_1_2"/>
<feBlend mode="normal" in="SourceGraphic" in2="effect1_dropShadow_1_2" result="shape"/>
</filter>
<linearGradient id="paint0_linear_1_2" x1="270.132" y1="483.841" x2="270.132" y2="596.847" gradientUnits="userSpaceOnUse">
<stop stop-color="white"/>
<stop offset="0.947115" stop-color="#F6E8AC"/>
</linearGradient>
<linearGradient id="paint1_linear_1_2" x1="653.873" y1="373.751" x2="653.873" y2="409.183" gradientUnits="userSpaceOnUse">
<stop stop-color="white"/>
<stop offset="0.947115" stop-color="#F6E8AC"/>
</linearGradient>
<linearGradient id="paint2_linear_1_2" x1="264.02" y1="562.313" x2="264.02" y2="606.323" gradientUnits="userSpaceOnUse">
<stop stop-color="white"/>
<stop offset="0.947115" stop-color="#F6E8AC"/>
</linearGradient>
<linearGradient id="paint3_linear_1_2" x1="622.819" y1="392.528" x2="622.819" y2="416.059" gradientUnits="userSpaceOnUse">
<stop stop-color="white"/>
<stop offset="0.947115" stop-color="#F6E8AC"/>
</linearGradient>
<linearGradient id="paint4_linear_1_2" x1="318.414" y1="558.931" x2="318.414" y2="605.423" gradientUnits="userSpaceOnUse">
<stop stop-color="white"/>
<stop offset="0.947115" stop-color="#F6E8AC"/>
</linearGradient>
<linearGradient id="paint5_linear_1_2" x1="298.26" y1="494.871" x2="298.26" y2="550.926" gradientUnits="userSpaceOnUse">
<stop stop-color="white"/>
<stop offset="0.947115" stop-color="#F6E8AC"/>
</linearGradient>
<linearGradient id="paint6_linear_1_2" x1="656.851" y1="425.307" x2="656.851" y2="481.609" gradientUnits="userSpaceOnUse">
<stop stop-color="white"/>
<stop offset="0.947115" stop-color="#F6E8AC"/>
</linearGradient>
<linearGradient id="paint7_linear_1_2" x1="697.808" y1="396.044" x2="697.808" y2="446.003" gradientUnits="userSpaceOnUse">
<stop stop-color="white"/>
<stop offset="0.947115" stop-color="#F6E8AC"/>
</linearGradient>
<linearGradient id="paint8_linear_1_2" x1="433.38" y1="535.135" x2="433.38" y2="584.161" gradientUnits="userSpaceOnUse">
<stop stop-color="white"/>
<stop offset="0.947115" stop-color="#F6E8AC"/>
</linearGradient>
<linearGradient id="paint9_linear_1_2" x1="501.164" y1="516.169" x2="501.164" y2="565.804" gradientUnits="userSpaceOnUse">
<stop stop-color="white"/>
<stop offset="0.947115" stop-color="#F6E8AC"/>
</linearGradient>
<linearGradient id="paint10_linear_1_2" x1="369.187" y1="547.921" x2="369.187" y2="596.11" gradientUnits="userSpaceOnUse">
<stop stop-color="white"/>
<stop offset="0.947115" stop-color="#F6E8AC"/>
</linearGradient>
<linearGradient id="paint11_linear_1_2" x1="554.789" y1="497.096" x2="554.789" y2="537.663" gradientUnits="userSpaceOnUse">
<stop stop-color="white"/>
<stop offset="0.947115" stop-color="#F6E8AC"/>
</linearGradient>
<linearGradient id="paint12_linear_1_2" x1="613.05" y1="473.532" x2="613.05" y2="511.351" gradientUnits="userSpaceOnUse">
<stop stop-color="white"/>
<stop offset="0.947115" stop-color="#F6E8AC"/>
</linearGradient>
<linearGradient id="paint13_linear_1_2" x1="599.782" y1="456.359" x2="599.782" y2="479.72" gradientUnits="userSpaceOnUse">
<stop stop-color="white"/>
<stop offset="0.947115" stop-color="#F6E8AC"/>
</linearGradient>
</defs>
</svg>
